/* XPM */
static const char *const duck_xpm[] = {
"128 128 18 1", //metadata
" 	c None",
"r	c #d5dae3",
"q	c #ba642a",
"p	c #d48a3b",
"o	c #e7d7bf",
"n	c #e9cea2",
"m	c #ebc68c",
"l	c #e5e4e4",
"k	c #eeb861",
"j	c #efb14d",
"i	c #edbb6b",
"h	c #ecbf75",
"g	c #e8d2af",
"f	c #d6d9de",
"e	c #000000",
"d	c #1c1c1d",
"c	c #9c9fa3",
"b	c #e4e7ed",
"                                                                                                                                ",
"                                                                                                                                ",
"                                                                                                                                ",
"                                                                                                                                ",
"                                                                                                                                ",
"                                                                                                                                ",
"                                                                                                                                ",
"                                                                                                                                ",
"                                                                                                                                ",
"                                                                                                                                ",
"                                                                                                                                ",
"                                                                                                                                ",
"                                                                                                                                ",
"                                                                                                                                ",
"                                                                                                                                ",
"                                                                                                                                ",
"                                                                                                                                ",
"                                                                                                                                ",
"                                                                                                                                ",
"                                                                                                                                ",
"                                                                                                                                ",
"                                                         rrrrrrrrrrrrrr                                                         ",
"                                                       rrrrrrrrrrrrrrrrrr                                                       ",
"                                                       rrbbbbbbbbbbbbbbrr                                                       ",
"                                                    rrbbbbbbbbbbbbbbbbbbbbrr                                                    ",
"                                                  rrbbbbbbbbbbbbbbbbbbbbbbbbrr                                                  ",
"                                                 rrbbbbbbbbbbbbbbbbbbbbbbbbbbrr                                                 ",
"                                               rrbbbbbbbbbbbbbbbbbbbbbbbbbbbbbbrr                                               ",
"                                              rrbbbbbbbbbbbbbbbbbbbbbbbbbbbbbbbbrr                                              ",
"                                             rrbbbbbbbbbbbbbbbbbbbbbbbbbbbbbbbbbbrr                                             ",
"                                            rrbbbbbbbbbbbbbbbbbbbbbbbbbbbbbbbbbbbbrr                                            ",
"                                           rrbbbbbbbbbbbbbbbbbbbbbbbbbbbbbbbbbbbbbbrr                                           ",
"                                          rrbbbbbbbbbbbbbbbbbbbbbbbbbbbbbbbbbbbbbbbbrr                                          ",
"                                         rrbbbbbbbbbbbbbbbbbbbbbbbbbbbbbbbbbbbbbbbbbbrr                                         ",
"                                         rrbbbbbbbbbbbbbbbbbbbbbbbbbbbbbbbbbbbbbbbbbbrr                                         ",
"                                        rrbbbbbbbbbbbbbbbbbbbbbbbbbbbbbbbbbbbbbbbbbbbbrr                                        ",
"                                       rrbbbbbbbbbbbbbbbbbbbbbbbbbbbbbbbbbbbbbbbbbbbbbbrr                                       ",
"                                       rrbbbbbbbbbbbbbbbbbbbbbbbbbbbbbbbbbbbbbbbbbbbbbbrr                                       ",
"                                      rrbbbbbbbbbbbbbbbbbbbbbbbbbbbbbbbbbbbbbbbbbbbbbbbbrr                                      ",
"                                      rrbbbbbbbbbbbbbbbbbbbbbbbbbbbbbbbbbbbbbbbbbbbbbbbbrr                                      ",
"                                      rrbbbbbbbbbbbbbbbbbbbbbbbbbbbbbbbbbbbbbbbbbbbbbbbbrr                                      ",
"                                     rrbbbbbbbbbbbbbbbbbbbbbbbbbbbbbbbbbbbbbbbbbbbbbbbbbbrr                                     ",
"                                     rrbbbbbbbbbbbceeeecbbbbbbbbbbbbbbbbceeeecbbbbbbbbbbbrr                                     ",
"                                     rrbbbbbbbbbbceeeeeecbbbbbbbbbbbbbbceeeeeecbbbbbbbbbbrr                                     ",
"                                     rrbbbbbbbbbbeeeeeeeebbbbbbbbbbbbbbeeeeeeeebbbbbbbbbbrr                                     ",
"                                     rrbbbbbbbbbbeeeeeeeebbbbbbbbbbbbbbeeeeeeeebbbbbbbbbbrr                                     ",
"                                     rrbbbbbbbbbbeeeeeeeebbbbbbbbbbbbbbeeeeeeeebbbbbbbbbbrr                                     ",
"                                     rrbbbbbbbbbbeeeeeeeebbbbbbbbbbbbbbeeeeeeeebbbbbbbbbbrr                                     ",
"                                     rrbbbbbbbbbbceeeeeecbbbbbbbbbbbbbbceeeeeecbbbbbbbbbbbrr                                    ",
"                                    rrbbbbbbbbbbbbceeeecbbbbbbbbbbbbbbbbceeeecbbbbbbbbbbbbrr                                    ",
"                                    rrbbbbbbbbbbbbbbbbbbbbbbbbbbbbbbbbbbbbbbbbbbbbbbbbbbbbrr                                    ",
"                                   rrbbbbbbbbbbbbbbbbbbbbbbbbbbbbbbbbbbbbbbbbbbbbbbbbbbbbbbrr                                   ",
"                                  rrbbbbbbbbbbbbbbbbbbbbbbbbbbbbbbbbbbbbbbbbbbbbbbbbbbbbbbbbrr                                  ",
"                                 rrbbbbbbbbbbbbbbbbbbbbbbbbbbbbbbbbbbbbbbbbbbbbbbbbbbbbbbbbbbrr                                 ",
"                                rrbbbbbbbbbbbbbbbbbbbbbbbbbbbbbbbbbbbbbbbbbbbbbbbbbbbbbbbbbbbbrr                                ",
"                               rrbbbbbbbbbbbbbbbbbbbbbbbbbbbbbbbbbbbbbbbbbbbbbbbbbbbbbbbbbbbbbbrr                               ",
"                               rrbbbbbbbbbbbbbbbbbbbbbbbbbbbbbbbbbbbbbbbbbbbbbbbbbbbbbbbbbbbbbbrr                               ",
"                              rrbbbbbbbbbbbbbbbbbbbbbbbbbbbbbbbbbbbbbbbbbbbbbbbbbbbbbbbbbbbbbbbbrr                              ",
"                             rrbbbbbbbbbbbbbbbbbbbbbbbbbbbbbbbbbbbbbbbbbbbbbbbbbbbbbbbbbbbbbbbbbbrr                             ",
"                             rrbbbbbbbbbbbbbbbbbbbbbbbbbbjjjbbbbbbbbjjjbbbbbbbbbbbbbbbbbbbbbbbbbbrr                             ",
"                            rrbbbbbbbbbbbbbbbbbbbbbbbbbijjjjjjbbbbjjjjjjibbbbbbbbbbbbbbbbbbbbbbbbbrr                            ",
"                            rrbbbbbbbbbbbbbbbbbbbbbbbbhjjjjjjjjjjjjjjjjjjhbbbbbbbbbbbbbbbbbbbbbbbbrr                            ",
"                           rrbbbbbbbbbbbbbbbbbbbbbbbbgjjjjjjjjjjjjjjjjjjjjgbbbbbbbbbbbbbbbbbbbbbbbbrr                           ",
"                           rrbbbbbbbbbbbbbbbbbbbbbbbbkjjjjjjjjjjjjjjjjjjjjkbbbbbbbbbbbbbbbbbbbbbbbbrr                           ",
"                           rrbbbbbbbbbbbbbbbbbbbbbbbmjjjjjjjjjjjjjjjjjjjjjjmbbbbbbbbbbbbbbbbbbbbbbbrr                           ",
"                           rrbbbbbbbbbbbbbbbbbbbbbbljjjjjjjjjjjjjjjjjjjjjjjjlbbbbbbbbbbbbbbbbbbbbbbrr                           ",
"                           rrbbbbbbbbbbbbbbbbbbbbbbnjjjjjjjjjjjjjjjjjjjjjjjjnbbbbbbbbbbbbbbbbbbbbbbrr                           ",
"                           rrbbbbbbbbbbbbbbbbbbbbbbkjjjjjjjjjjjjjjjjjjjjjjjjkbbbbbbbbbbbbbbbbbbbbbbrr                           ",
"                           rrbbbbbbbbbbbbbbbbbbbbbojjjjjjjjjjjjjjjjjjjjjjjjjjobbbbbbbbbbbbbbbbbbbbbrr                           ",
"                           rrbbbbbbbbbbbbbbbbbbbbbhjjjjjjjpqqpjjjjpqqpjjjjjjjhbbbbbbbbbbbbbbbbbbbbbrr                           ",
"                           rrbbbbbbbbbbbbbbbbbbbbljjjjjjjjqqqqjjjjqqqqjjjjjjjjlbbbbbbbbbbbbbbbbbbbbrr                           ",
"                           rrbbbbbbbbbbbbbbbbbbbbgjjjjjjjjqqqqjjjjqqqqjjjjjjjjgbbbbbbbbbbbbbbbbbbbbrr                           ",
"                           rrbbbbbbbbbbbbbbbbbbbbijjjjjjjjpqqpjjjjpqqpjjjjjjjjibbbbbbbbbbbbbbbbbbbbrr                           ",
"                           rrbbbbbbbbbbbbbbbbbbbljjjjjjjjjjjjjjjjjjjjjjjjjjjjjjlbbbbbbbbbbbbbbbbbbbrr                           ",
"                           rrbbbbbbbbbbbbbbbbbbbgjjjjjjjjjjjjjjjjjjjjjjjjjjjjjjgbbbbbbbbbbbbbbbbbbbrr                           ",
"                           rrbbbbbbbbbbbbbbbbbbbijjjjjjjjjjjjjjjjjjjjjjjjjjjjjjibbbbbbbbbbbbbbbbbbbrr                           ",
"                            rrbbbbbbbbbbbbbbbbbljjjjjjjjjjjjjjjjjjjjjjjjjjjjjjjjlbbbbbbbbbbbbbbbbbrr                            ",
"                            rrbbbbbbbbbbbbbbbbbgjjjjjjjjjjjjjjjjjjjjjjjjjjjjjjjjgbbbbbbbbbbbbbbbbbrr                            ",
"                             rrbbbbbbbbbbbbbbbbhjjjjjjjjjjjjjjjjjjjjjjjjjjjjjjjjhbbbbbbbbbbbbbbbbrr                             ",
"                             rrbbbbbbbbbbbbbbbbjjjjjjjjjjjjjjjjjjjjjjjjjjjjjjjjjjbbbbbbbbbbbbbbbbrr                             ",
"                              rrbbbbbbbbbbbbbbojjjjjjjjjjjjjjjjjjjjjjjjjjjjjjjjjjobbbbbbbbbbbbbbrr                              ",
"                               rrbbbbbbbbbbbbbmjjjjjjjjjjjjjjjjjjjjjjjjjjjjjjjjjjmbbbbbbbbbbbbbrr                               ",
"                               rrbbbbbbbbbbbbbkjjjjjjjjjjjjjjjjjjjjjjjjjjjjjjjjjjkbbbbbbbbbbbbbrr                               ",
"                                rrbbbbbbbbbbbljjjjjjjjjjjjjjjjjjjjjjjjjjjjjjjjjjjjlbbbbbbbbbbbrr                                ",
"                                 rrbbbbbbbbbbnjjjjjjjjjjjjjjjjjjjjjjjjjjjjjjjjjjjjnbbbbbbbbbbrr                                 ",
"                                  rrbbbbbbbbbhjjjjjjjjjjjjjjjjjjjjjjjjjjjjjjjjjjjjhbbbbbbbbbrr                                  ",
"                                   rrbbbbbbbbjjjjjjjjjjjjjjjjjjjjjjjjjjjjjjjjjjjjjjbbbbbbbbrr                                   ",
"                                     rrbbbbbljjjjjjjjjjjjjjjjjjjjjjjjjjjjjjjjjjjjjjlbbbbbrr                                     ",
"                                      rrbbbbojjjjjjjjjjjjjjjjjjjjjjjjjjjjjjjjjjjjjjobbbbrr                                      ",
"                                        rrbbnjjjjjjjjjjjjjjjjjjjjjjjjjjjjjjjjjjjjjjnbbrr                                        ",
"                                         rrbijjjjjjjjjjjjjjjjjjjjjjjjjjjjjjjjjjjjjjibrr                                         ",
"                                            jjjjjjjjjjjjjjjjjjjjjjjjjjjjjjjjjjjjjjjj                                            ",
"                                            jjjjjjjjjjjjjjjjjjjjjjjjjjjjjjjjjjjjjjjj                                            ",
"                                            jjjjjjjjjjjjjjjjjjjjjjjjjjjjjjjjjjjjjjjj                                            ",
"                                            jjjjjjjjjjjjjjjjjjjjjjjjjjjjjjjjjjjjjjjj                                            ",
"                                            jjjjjjjjjjjjjjjjjjjjjjjjjjjjjjjjjjjjjjjj                                            ",
"                                            jjjjjjjjjjjjjjjjjjjjjjjjjjjjjjjjjjjjjjjj                                            ",
"                                            jjjjjjjjjjjjjjjjjjjjjjjjjjjjjjjjjjjjjjjj                                            ",
"                                            jjjjjjjjjjjjjjjjjjjjjjjjjjjjjjjjjjjjjjjj                                            ",
"                                             jjjjjjjjjjjjjjjjjjjjjjjjjjjjjjjjjjjjjj                                             ",
"                                             jjjjjjjjjjjjjjjjjjjjjjjjjjjjjjjjjjjjjj                                             ",
"                                              jjjjjjjjjjjjjjjjjjjjjjjjjjjjjjjjjjjj                                              ",
"                                                jjjjjjjjjjjjjjjjjjjjjjjjjjjjjjjj                                                ",
"                                                  jjjjjjjjjjjjjjjjjjjjjjjjjjjj                                                  ",
"                                                     jjjjjjjjjjjjjjjjjjjjjj                                                     ",
"                                                                                                                                ",
"                                                                                                                                ",
"                                                                                                                                ",
"                                                                                                                                ",
"                                                                                                                                ",
"                                                                                                                                ",
"                                                                                                                                ",
"                                                                                                                                ",
"                                                                                                                                ",
"                                                                                                                                ",
"                                                                                                                                ",
"                                                                                                                                ",
"                                                                                                                                ",
"                                                                                                                                ",
"                                                                                                                                ",
"                                                                                                                                ",
"                                                                                                                                ",
"                                                                                                                                ",
"                                                                                                                                ",
"                                                                                                                                ",
"                                                                                                                                ",
"                                                                                                                                ",
"                                                                                                                                "
};
